P2
94 131
255
192 184 181 186 190 188 185 184 182 182 181 178 175 173 173 174 175 
166 166 174 172 161 159 167 173 160 156 164 168 162 159 162 156 
153 150 148 148 149 149 149 148 145 146 149 148 144 143 146 152 
150 147 144 143 143 145 146 144 144 144 141 137 134 134 135 139 
138 136 137 137 136 134 132 135 136 137 139 140 141 141 141 131 
134 138 139 139 139 140 141 139 140 142 146 149 150 191 184 181 185 189 187 184 183 181 180 177 175 173 172 171 170 163 
154 152 157 160 158 161 169 164 167 166 162 158 159 161 162 155 
154 152 151 150 148 146 144 148 145 145 148 148 144 143 145 148 
147 146 145 144 143 142 142 140 141 142 141 139 137 138 139 138 
137 136 136 137 136 134 132 138 139 141 143 144 145 144 144 133 
136 139 141 140 140 140 141 138 139 141 145 149 150 189 183 181 184 187 185 182 182 180 176 172 171 172 171 169 166 182 
176 168 164 161 158 154 151 162 170 170 160 157 164 161 150 151 
152 153 153 151 148 145 142 147 144 144 148 147 143 142 145 143 
144 144 144 143 141 138 137 139 140 141 140 138 137 138 140 138 
137 136 136 137 136 134 132 135 137 139 142 143 143 142 141 136 
139 142 143 142 141 141 142 140 141 143 147 152 154 188 183 181 184 185 182 180 181 180 175 169 169 171 172 168 163 154 
157 157 157 161 164 159 150 160 158 154 152 160 166 159 144 149 
150 151 151 149 146 145 145 145 142 143 146 145 142 141 143 141 
141 140 140 138 137 135 135 139 140 140 138 135 133 133 134 137 
136 135 136 137 136 134 132 133 135 138 141 142 142 140 139 139 
142 144 145 143 142 142 143 144 144 146 150 155 158 187 183 182 184 184 181 179 181 180 175 169 169 171 172 168 163 169 
169 166 162 162 165 162 156 152 142 138 144 151 156 164 172 151 
151 150 147 143 141 142 144 143 140 140 143 143 139 138 141 141 
139 136 134 133 133 134 135 134 136 136 135 132 131 131 132 136 
135 134 135 136 136 134 132 136 138 141 143 144 144 143 142 140 
143 146 146 145 143 143 144 144 144 146 149 154 157 187 184 183 185 184 180 179 181 179 175 171 170 171 170 167 164 171 
158 137 116 101 94 94 97 98 93 92 93 88 89 114 144 153 
153 150 144 138 135 136 139 140 137 137 140 140 136 135 138 140 
137 134 131 129 130 132 134 127 129 131 131 131 131 133 135 135 
134 133 134 136 136 134 132 135 136 137 139 140 141 141 141 140 
143 146 146 145 144 145 145 143 143 144 147 151 154 188 185 185 186 184 180 179 182 176 175 172 170 168 167 166 165 153 
136 117 102 90 87 100 118 132 132 129 119 106 101 109 121 145 
147 148 144 138 134 136 139 137 134 135 138 137 133 133 135 137 
135 134 132 130 130 130 130 126 128 130 130 130 131 133 135 134 
133 133 134 136 136 134 132 133 133 132 133 134 136 138 139 139 
141 145 146 146 145 146 146 146 145 145 147 151 154 188 186 186 187 184 180 179 183 174 174 173 170 166 164 165 166 139 
125 114 111 106 105 124 150 181 181 171 155 143 132 107 82 133 
139 144 144 140 137 139 142 135 133 133 136 136 132 131 133 134 
134 134 134 133 131 129 127 130 131 132 132 130 129 130 132 134 
133 133 134 136 136 134 132 136 135 134 134 135 138 141 143 137 
140 144 146 146 145 146 147 150 149 149 151 154 157 188 186 183 182 182 181 178 176 171 178 171 163 170 172 161 155 140 
147 96 115 122 91 137 161 199 174 196 181 137 141 126 78 86 
140 137 141 145 149 123 146 136 135 133 134 136 137 137 136 137 
135 136 136 134 130 130 133 128 132 136 136 130 126 129 135 130 
131 132 133 134 134 134 134 139 138 137 135 135 136 137 138 142 
142 143 143 145 146 148 149 152 151 151 153 157 159 187 185 183 181 181 180 177 175 173 178 169 162 168 166 151 142 162 
132 105 111 113 104 129 172 179 209 215 198 178 152 124 106 97 
112 135 153 119 134 139 132 139 137 135 135 137 138 137 136 135 
136 134 129 128 130 128 123 133 136 139 138 133 128 128 131 131 
132 133 134 134 135 134 134 138 137 135 135 135 136 137 138 146 
146 146 147 148 150 151 152 152 151 151 153 156 159 189 186 184 182 182 180 178 175 173 176 168 164 170 162 141 130 161 
98 109 115 125 148 163 228 245 237 194 166 170 163 141 121 107 
132 143 154 145 145 138 150 136 135 133 134 135 136 134 133 140 
143 140 132 133 140 137 127 134 136 138 137 133 130 129 129 133 
133 134 135 135 135 134 134 136 135 134 134 135 137 139 140 144 
144 144 145 146 148 149 150 152 151 151 153 156 158 191 189 186 184 183 182 179 177 172 173 166 168 174 159 133 122 156 
91 115 129 134 160 180 241 225 212 241 220 176 171 150 125 116 
139 137 140 152 144 130 148 141 140 139 141 142 143 142 140 135 
134 132 130 130 131 131 131 133 136 136 133 131 133 133 132 134 
134 135 135 135 134 134 133 136 135 135 135 137 139 141 142 142 
142 143 143 145 146 148 149 151 150 150 153 156 158 190 188 185 183 182 180 177 175 173 171 166 170 172 149 120 111 138 
104 119 149 155 170 207 245 232 208 253 214 177 196 172 185 158 
135 136 135 126 135 152 138 137 136 137 138 140 141 139 137 141 
134 134 138 133 124 127 138 134 139 139 133 130 134 137 136 135 
135 135 135 134 133 132 132 137 136 136 136 138 140 143 144 145 
145 145 146 147 149 150 151 151 150 150 152 155 158 188 185 182 180 179 177 174 171 174 171 167 170 166 133 102 96 104 
106 108 141 159 175 219 232 238 215 202 148 169 192 145 186 188 
174 139 102 119 126 138 146 141 141 141 142 143 142 140 137 138 
131 129 130 125 117 119 127 129 139 143 136 131 134 138 137 135 
135 135 134 133 132 130 129 137 136 136 136 138 140 142 144 142 
142 143 143 145 146 148 149 150 150 150 152 155 157 189 187 183 181 180 178 175 172 174 171 169 172 162 124 92 91 95 
112 101 112 142 168 193 190 198 229 229 223 248 228 181 191 185 
208 141 67 114 105 95 133 140 139 137 137 136 133 128 124 104 
105 99 90 93 102 101 90 107 126 139 136 130 133 137 135 134 
134 134 133 132 130 128 127 136 135 135 135 136 138 140 141 138 
138 139 139 140 142 144 145 150 149 149 152 155 157 193 190 187 185 183 181 178 175 172 170 170 174 162 122 93 94 99 
120 113 110 159 209 220 217 192 172 131 166 210 230 250 210 202 
212 168 93 107 100 104 114 97 95 93 91 88 83 76 72 89 
100 90 72 85 114 110 81 83 109 131 132 129 132 136 134 134 
134 133 132 131 129 127 126 134 134 133 133 134 135 137 138 141 
141 141 142 143 144 146 147 150 149 149 151 155 157 195 192 188 185 183 181 179 176 167 174 170 172 162 109 86 124 124 
159 120 137 144 178 196 132 95 72 62 75 29 81 139 225 229 
210 93 57 100 100 109 152 149 123 144 126 118 127 96 94 124 
130 119 96 127 158 126 107 153 122 141 130 120 95 111 140 136 
129 128 135 135 127 126 131 133 133 133 134 136 138 140 141 139 
141 143 144 144 145 147 149 146 146 147 149 153 154 195 191 187 183 182 180 178 176 170 173 166 173 172 122 80 92 77 
100 105 136 142 161 139 91 65 181 144 146 89 41 49 76 122 
118 78 76 99 99 120 164 180 152 194 194 176 143 110 124 95 
137 136 121 119 120 134 142 91 96 140 141 116 93 104 133 138 
132 128 131 133 132 130 130 134 134 134 135 136 137 139 140 139 
141 143 143 143 144 145 147 147 147 148 150 153 154 195 191 186 182 180 179 177 176 178 176 164 169 174 129 69 49 68 
61 67 68 47 68 63 77 207 246 170 179 138 84 55 15 30 
66 128 142 120 96 113 158 171 121 147 139 120 76 80 126 89 
133 116 105 105 107 124 104 106 116 144 144 113 107 99 110 135 
134 131 129 132 136 135 130 136 136 135 135 136 137 138 138 139 
141 142 142 141 141 142 144 148 147 148 150 152 154 196 192 186 182 180 180 178 177 179 177 166 167 173 143 91 62 62 
52 52 59 49 91 123 163 202 194 169 141 117 127 73 60 72 
72 104 96 110 109 99 116 129 112 172 191 184 120 90 92 105 
127 113 94 108 132 119 74 107 124 140 136 102 116 99 98 123 
133 137 132 131 137 137 131 138 137 137 136 136 136 137 137 139 
141 142 141 139 139 140 141 147 146 146 148 151 152 198 194 188 185 183 182 180 179 171 173 170 170 175 167 144 129 60 
60 44 67 77 128 175 192 201 239 210 112 126 166 78 88 65 
95 121 78 97 96 93 126 142 133 165 171 173 144 118 94 91 
93 128 107 97 116 98 107 133 168 192 171 115 121 102 99 109 
127 141 138 133 135 136 133 139 138 137 137 136 136 137 137 139 
140 141 140 138 138 138 140 144 144 144 146 149 150 197 194 190 187 185 183 180 178 172 174 175 172 170 172 174 173 74 
92 80 89 69 90 118 120 85 95 56 49 103 133 101 76 67 
92 107 84 140 131 108 102 130 139 161 178 169 151 113 76 91 
62 122 118 88 85 80 151 217 233 238 196 146 148 128 113 99 
118 136 141 137 134 134 135 139 138 138 137 137 137 138 138 139 
140 141 140 138 138 139 140 143 142 143 146 149 151 194 192 190 188 186 183 179 175 180 175 176 174 166 167 174 175 48 
53 67 72 48 58 38 35 47 33 42 136 150 100 104 69 64 
78 98 84 108 82 110 112 112 128 147 191 157 132 98 90 118 
69 101 111 98 104 118 181 231 226 224 176 155 162 150 125 99 
108 124 137 140 135 133 135 138 138 137 137 137 138 139 139 138 
140 141 140 139 139 140 141 143 143 144 147 151 153 192 191 189 188 187 183 177 173 184 172 174 178 172 171 176 174 135 
63 43 36 50 102 62 66 66 71 71 149 181 102 66 53 77 
55 77 98 118 79 113 83 99 117 142 214 160 121 95 124 105 
69 72 81 87 121 161 190 214 220 239 184 157 142 132 107 102 
102 113 132 142 137 133 135 138 137 137 137 137 138 139 140 138 
139 141 141 140 139 141 142 143 143 145 149 153 156 192 190 189 188 188 186 183 180 182 180 177 174 172 171 171 172 170 
165 102 34 40 100 125 116 141 132 58 48 56 54 65 55 61 
71 71 84 105 96 80 89 90 106 170 234 136 94 136 141 93 
64 59 62 100 144 164 206 169 239 205 186 158 129 100 97 85 
79 87 133 135 144 131 133 133 137 137 135 136 139 139 136 138 
138 137 138 139 141 144 145 145 144 143 145 147 149 193 192 190 189 189 187 184 181 181 180 177 174 172 171 171 171 161 
180 142 53 33 77 140 169 163 113 113 74 68 55 53 68 64 
54 45 70 107 102 74 66 72 110 199 191 96 69 122 149 73 
57 66 73 106 152 167 184 164 243 202 180 156 123 103 99 69 
76 79 108 131 139 127 134 136 139 138 135 136 141 143 141 141 
140 139 138 138 139 141 142 142 141 142 144 147 150 194 193 191 190 189 187 184 181 181 179 176 173 171 170 170 170 181 
175 168 111 72 33 98 175 155 171 152 130 67 87 72 42 51 
53 59 78 89 72 59 68 79 64 113 86 79 88 99 97 53 
44 64 77 100 149 165 157 158 242 187 163 146 105 97 87 64 
83 77 79 131 138 127 136 139 141 139 135 137 143 147 147 144 
142 140 138 137 137 137 138 140 139 140 143 147 150 194 193 190 189 189 186 183 180 180 179 176 173 171 170 170 170 182 
157 177 167 149 56 75 131 125 109 198 178 180 129 72 72 58 
73 91 97 76 49 54 81 77 59 72 62 78 82 82 92 48 
31 48 68 84 127 151 135 157 228 166 142 134 92 90 70 70 
93 75 55 127 138 128 132 138 141 141 138 140 146 149 148 143 
141 139 137 136 136 137 137 140 139 140 142 145 148 194 193 190 189 188 186 182 179 181 179 176 173 171 170 170 170 168 
161 183 169 169 87 60 50 98 202 162 150 81 62 75 69 57 
53 58 63 51 37 37 45 68 97 79 83 71 61 66 81 51 
24 32 63 76 102 129 117 157 197 141 122 125 89 90 61 73 
92 69 42 111 134 131 127 134 139 142 141 143 147 147 144 140 
139 137 136 136 137 138 139 142 141 140 141 143 145 196 194 191 190 189 186 182 179 182 180 177 175 172 172 171 172 175 
164 177 171 168 96 68 64 110 92 100 95 123 74 59 62 58 
43 42 48 50 55 54 41 60 108 72 74 64 70 65 51 53 
30 27 61 78 90 112 104 152 150 119 106 111 86 88 58 77 
86 70 50 90 128 141 131 131 137 141 141 142 145 143 139 137 
136 135 135 135 137 139 140 142 141 140 140 142 143 199 197 194 193 191 189 185 182 183 181 179 176 174 173 173 173 176 
160 169 186 175 117 112 150 112 140 139 147 79 70 99 92 29 
21 26 31 36 56 61 39 57 94 90 74 68 72 73 76 55 
47 27 49 74 87 108 99 157 117 116 105 102 85 86 61 81 
80 77 69 63 114 145 133 131 135 138 137 138 140 140 136 137 
136 135 134 135 136 138 139 140 139 138 139 141 143 201 199 197 195 193 191 187 184 184 182 179 177 175 174 173 174 169 
176 175 167 138 105 101 129 156 86 144 161 119 116 109 79 62 
50 53 61 78 110 110 72 83 59 72 54 80 76 62 76 57 
61 27 33 64 87 111 101 173 111 129 118 104 90 90 70 79 
74 81 79 37 94 138 127 132 135 135 132 133 137 138 135 138 
137 135 134 134 135 136 137 138 137 136 138 141 143 200 196 194 196 195 189 184 183 182 180 177 175 175 175 173 171 179 
171 164 176 151 90 165 106 112 104 133 138 119 151 160 128 92 
103 133 113 133 179 195 128 52 84 71 80 87 67 67 61 63 
48 21 35 64 102 86 110 134 138 141 117 118 123 96 94 69 
76 78 68 53 50 130 130 133 142 134 124 134 142 135 129 133 
134 135 134 133 134 137 140 138 138 139 141 145 146 200 194 192 193 192 186 183 183 182 180 177 175 175 175 173 171 162 
186 159 165 107 103 142 103 97 122 139 141 158 179 172 162 112 
69 82 145 167 175 178 147 78 87 75 75 82 79 75 64 62 
47 28 46 71 99 83 107 125 141 152 130 139 139 92 86 62 
73 70 68 63 51 97 134 131 140 135 128 134 136 130 130 133 
134 134 134 133 134 137 139 139 138 138 141 144 145 202 196 192 192 191 186 184 185 182 180 177 175 175 175 173 171 165 
175 173 125 100 85 123 105 134 86 106 158 186 207 201 141 74 
47 69 191 206 213 208 183 80 67 73 73 74 81 72 64 61 
43 35 54 75 96 89 118 134 163 176 149 165 157 85 77 65 
68 61 63 62 51 58 130 129 137 134 131 135 132 128 133 131 
133 134 133 133 133 136 138 139 138 138 140 142 144 205 199 194 194 193 189 187 188 182 180 177 175 175 175 173 171 180 
162 174 103 103 74 100 117 143 114 159 191 179 194 214 137 70 
25 45 210 190 145 149 191 82 45 65 74 70 75 63 68 65 
45 47 64 82 100 110 146 169 199 207 163 173 158 77 79 85 
65 62 60 47 57 41 107 131 134 130 129 135 132 128 135 130 
131 133 133 132 132 134 136 139 138 137 138 140 142 205 198 194 194 192 188 186 188 182 180 177 175 175 175 173 171 179 
172 158 108 78 94 78 115 121 176 200 172 174 168 170 108 57 
46 57 154 134 127 152 197 139 65 55 61 64 71 60 72 63 
47 66 78 91 107 129 163 201 224 230 166 158 140 68 94 104 
67 79 72 44 71 46 69 134 136 128 125 133 132 127 130 128 
130 132 132 131 131 133 134 138 136 135 136 139 141 200 194 191 191 190 185 183 183 182 180 177 175 175 175 173 171 170 
174 173 90 70 92 82 89 127 150 180 187 183 119 115 72 26 
86 118 122 156 223 241 224 215 123 57 41 52 63 60 65 47 
41 76 80 89 102 133 160 208 224 241 169 133 112 59 112 107 
73 97 85 58 81 55 43 125 136 131 123 129 131 124 122 126 
128 131 131 131 130 131 133 136 134 133 134 137 140 198 193 190 191 190 185 181 181 182 180 177 175 175 175 173 171 167 
167 190 84 78 70 84 69 110 116 186 240 202 78 94 88 49 
81 147 151 233 245 226 230 237 182 93 49 51 57 61 54 39 
37 78 71 77 98 144 168 195 209 251 180 116 86 48 120 98 
81 97 77 74 73 53 46 96 126 134 123 125 131 127 122 125 
127 130 131 130 130 130 131 134 132 131 132 136 140 198 194 192 194 192 186 182 181 182 180 177 175 175 175 173 171 169 
172 174 119 67 67 63 71 68 122 163 201 232 113 80 65 50 
80 167 146 251 243 210 221 215 217 139 80 63 57 66 51 46 
43 82 64 70 103 164 192 183 198 255 193 111 72 40 121 90 
88 87 59 79 58 47 63 68 113 134 124 123 132 132 128 124 
127 130 131 130 129 130 131 132 130 129 131 136 140 198 197 195 194 193 190 186 183 180 178 176 175 176 175 173 171 172 
170 176 152 58 59 72 55 63 98 156 132 177 131 84 76 51 
67 138 143 207 195 235 215 223 200 171 85 46 57 79 33 25 
58 76 75 77 104 201 192 190 201 243 200 98 59 69 98 66 
84 66 67 67 40 95 71 57 91 130 132 124 126 124 128 123 
124 125 127 128 129 130 130 128 128 129 133 138 141 200 199 197 196 195 192 188 185 184 182 181 180 180 180 178 176 186 
168 183 164 91 45 55 55 75 67 83 121 99 107 83 83 58 
63 88 112 171 191 196 204 190 174 150 99 36 37 55 45 31 
69 69 66 83 129 201 178 213 228 251 187 91 86 82 80 69 
82 64 81 81 69 122 103 58 93 127 129 125 127 126 129 125 
126 127 129 129 130 130 129 128 128 129 132 137 140 200 198 196 195 194 192 189 186 187 185 183 182 183 182 180 178 185 
159 182 177 137 54 50 62 61 57 56 127 91 93 89 114 75 
63 61 52 98 125 116 135 156 126 97 92 35 27 20 24 47 
82 65 73 89 125 168 170 241 241 245 178 83 95 79 73 108 
102 73 104 91 83 122 111 64 102 125 125 125 125 125 125 126 
127 128 129 130 130 130 130 129 128 129 131 135 138 197 195 193 192 191 189 187 184 186 184 182 181 181 181 179 177 178 
165 177 182 166 95 59 55 45 59 51 93 129 81 84 119 128 
91 108 57 80 74 83 88 136 105 88 97 61 36 18 19 45 
75 59 89 91 97 131 191 240 212 217 174 80 82 71 104 153 
118 79 120 88 70 95 96 72 116 125 122 125 121 120 118 124 
125 126 128 129 130 131 131 129 128 128 131 134 136 197 195 192 191 190 189 187 185 185 183 181 181 181 180 178 176 175 
185 175 181 172 145 80 46 65 60 43 60 127 83 103 123 164 
97 129 121 114 79 84 76 91 86 101 92 69 27 24 25 26 
57 53 87 91 92 129 218 213 180 205 165 75 73 78 139 154 
101 70 118 80 56 77 87 73 125 124 119 126 118 120 117 119 
121 123 126 128 130 131 131 129 129 128 130 133 135 199 196 193 192 192 191 189 188 187 185 183 182 183 182 180 178 169 
189 171 175 171 180 120 75 62 42 47 77 80 83 124 145 164 
92 90 160 139 103 72 57 55 59 78 63 63 29 25 17 22 
53 58 72 87 104 145 219 206 183 223 149 68 73 83 127 124 
76 69 106 71 52 76 76 65 128 121 118 128 118 124 122 118 
120 122 125 127 129 130 130 129 129 128 130 133 135 199 196 193 191 191 191 190 188 187 186 184 183 183 183 181 179 172 
177 173 171 173 181 160 132 75 43 45 72 55 73 98 143 161 
133 83 136 148 126 86 49 56 57 56 54 59 46 32 24 28 
46 65 67 85 98 152 225 217 187 231 130 70 76 78 93 87 
66 87 97 67 59 85 56 59 133 122 118 130 116 125 125 122 
123 125 126 127 128 128 128 129 128 129 131 134 137 196 193 190 188 188 188 188 186 186 184 182 182 182 181 179 178 188 
173 182 171 176 162 175 168 158 95 46 40 86 90 73 131 146 
174 100 76 138 128 113 50 40 56 48 54 33 28 16 36 25 
27 64 74 88 81 153 249 220 170 215 116 81 81 77 79 60 
63 105 92 67 72 99 46 59 138 125 119 130 112 123 123 126 
127 128 128 128 127 126 126 129 128 129 131 135 138 195 195 193 191 189 187 186 185 183 181 179 179 179 177 174 172 176 
175 174 172 171 170 169 169 179 168 75 49 62 97 68 126 147 
129 149 98 92 119 111 60 44 43 24 35 16 31 28 17 31 
31 62 74 59 98 183 232 182 186 230 96 71 82 81 72 57 
100 118 96 81 87 78 52 67 120 126 131 115 128 125 125 124 
126 128 130 131 130 128 127 128 128 130 133 137 139 196 195 194 192 190 188 186 185 184 182 180 180 180 178 176 173 176 
175 173 172 170 170 169 169 172 179 132 39 54 85 77 92 144 
122 131 116 96 82 81 79 36 24 24 36 16 26 18 36 21 
29 69 89 79 114 191 238 187 151 230 92 56 81 93 82 68 
120 127 78 57 82 80 45 67 110 133 130 120 130 126 129 127 
128 130 131 131 130 129 129 127 127 129 132 136 139 196 195 193 191 189 187 186 185 185 183 181 180 180 179 177 175 175 
174 173 171 170 170 169 170 170 178 182 48 49 66 75 66 122 
113 95 110 95 68 68 92 22 21 31 25 9 23 9 25 9 
50 91 83 69 124 204 238 202 114 230 93 67 98 92 67 73 
94 96 72 57 64 70 65 64 92 141 125 122 130 123 131 128 
128 128 128 128 128 127 127 126 126 127 131 135 137 194 193 192 190 188 186 184 184 186 183 180 179 179 179 177 175 174 
174 172 171 170 170 170 170 174 164 186 87 48 54 59 65 105 
119 69 79 85 83 75 78 35 23 15 25 27 18 11 25 35 
59 82 79 84 140 202 224 221 98 202 58 76 116 91 74 90 
85 80 74 62 51 51 58 62 75 143 120 122 127 118 126 127 
126 125 124 123 123 123 123 124 124 126 129 133 136 192 191 190 188 186 184 183 182 185 182 179 177 177 177 176 174 173 
173 171 170 170 169 170 170 175 162 169 130 46 59 46 66 102 
131 72 64 77 91 79 69 73 37 0 29 51 17 30 55 65 
60 81 125 162 184 194 195 171 86 181 52 110 128 75 75 87 
92 81 59 58 73 72 55 65 68 139 123 122 125 117 122 126 
125 124 123 122 122 122 123 124 124 125 128 132 135 192 191 190 188 186 184 182 182 185 182 178 176 176 176 175 174 172 
172 171 170 169 169 170 170 170 172 165 155 56 65 49 57 88 
119 88 69 78 90 86 89 88 83 41 11 34 37 57 64 62 
114 166 194 214 220 193 156 129 107 179 64 122 111 63 80 98 
87 70 58 60 70 71 65 68 70 127 132 123 127 123 121 126 
126 126 126 125 125 125 125 123 123 125 128 132 135 194 193 191 189 187 185 184 183 186 183 179 177 177 177 176 176 172 
171 170 169 169 169 170 170 168 173 173 166 93 53 60 52 63 
95 102 65 78 98 96 95 80 108 115 21 27 66 70 88 121 
199 247 235 217 203 165 122 139 137 155 44 80 72 73 98 113 
90 74 73 66 51 48 57 67 72 110 139 122 129 130 120 124 
125 126 127 127 127 126 125 124 124 125 129 133 135 195 195 193 191 189 187 186 185 188 184 180 178 178 178 178 177 171 
171 170 169 169 169 170 170 171 162 179 171 132 33 67 58 52 
87 113 52 72 108 98 72 78 85 152 69 63 80 63 150 242 
243 244 244 219 160 113 105 105 122 133 56 81 65 73 65 63 
79 82 70 70 83 84 73 63 72 95 142 119 128 134 118 120 
122 124 126 127 126 124 123 124 124 125 129 133 135 198 194 192 192 189 185 183 186 183 180 178 177 177 178 176 175 175 
172 170 171 173 174 172 169 172 152 168 179 152 52 31 68 47 
76 102 83 56 76 98 84 79 95 86 65 72 104 149 189 231 
245 226 158 136 98 111 139 95 160 95 46 59 61 69 51 131 
110 105 123 128 103 74 62 75 55 85 131 132 128 131 120 121 
122 123 124 123 122 120 119 121 121 124 128 132 134 198 193 191 191 189 184 183 185 183 181 178 177 177 177 176 175 173 
171 169 170 172 172 170 168 176 164 183 170 168 67 39 49 49 
63 79 70 53 68 85 73 80 76 65 84 123 139 173 235 224 
198 185 145 117 93 115 121 144 137 81 49 54 47 69 119 101 
163 199 160 94 67 82 103 67 60 73 128 125 134 122 123 125 
126 127 127 127 126 124 123 121 122 123 127 131 133 198 193 191 191 189 184 183 185 183 181 178 177 177 177 176 174 172 
170 169 169 170 170 169 167 162 154 175 153 173 69 38 38 39 
48 68 71 58 63 84 94 90 88 107 107 108 176 243 242 212 
211 173 107 83 60 75 103 159 83 41 49 75 79 96 163 212 
172 110 78 106 143 120 67 66 72 68 120 122 138 112 126 128 
128 129 129 128 127 126 126 122 122 123 127 131 133 199 195 192 192 190 185 184 187 184 181 178 177 177 177 175 174 172 
171 170 170 169 169 168 167 167 160 169 164 184 91 44 43 33 
33 48 67 69 68 81 98 105 85 76 126 210 251 248 247 213 
148 113 81 63 105 127 70 43 55 67 80 119 163 152 108 77 
126 178 186 151 110 93 94 73 83 74 106 130 136 111 127 127 
127 127 126 126 125 125 125 124 123 124 127 130 133 200 196 194 194 191 186 185 188 184 182 179 177 177 177 175 173 172 
173 172 171 170 169 168 168 169 172 163 172 184 137 60 25 35 
26 32 59 82 81 78 85 101 94 167 238 238 239 230 181 119 
96 53 49 87 109 84 62 60 43 45 115 131 109 146 161 196 
154 112 94 84 70 65 70 73 79 78 84 139 130 120 128 127 
127 126 126 125 125 125 125 126 125 125 127 131 133 200 196 193 194 191 186 185 188 185 182 179 177 177 176 174 173 172 
173 174 172 169 168 168 169 159 174 160 168 177 181 101 27 35 
53 72 92 109 111 117 136 151 195 214 222 238 211 134 74 68 
49 74 110 73 57 48 34 39 76 74 105 109 101 125 87 86 
91 94 93 90 83 71 60 64 64 71 66 136 127 130 130 131 
130 129 128 128 128 128 129 129 128 127 129 132 135 198 194 191 192 189 184 183 186 185 183 179 177 177 176 174 172 171 
173 173 171 168 165 166 168 167 169 171 170 159 162 131 80 74 
109 129 138 157 169 177 196 190 174 182 187 149 100 80 79 66 
89 84 103 100 76 31 40 67 73 58 67 74 72 82 68 63 
74 80 81 91 101 92 73 57 55 59 62 122 130 134 131 133 
132 131 129 129 129 130 131 132 130 129 130 133 136 196 192 190 190 187 182 181 184 186 183 179 178 177 176 174 172 169 
171 172 170 166 164 164 166 170 147 166 153 114 80 103 107 140 
152 144 152 199 225 209 193 180 171 120 79 84 79 58 55 66 
113 107 79 35 36 18 18 41 62 76 58 55 64 61 70 58 
56 55 59 69 78 80 77 57 56 52 68 110 134 134 129 133 
132 130 129 128 129 130 131 133 131 130 131 134 137 196 195 193 191 189 188 188 188 187 186 184 180 176 173 172 172 180 
171 166 170 171 168 167 170 169 163 88 112 132 135 103 143 142 
139 145 200 217 193 203 205 164 134 94 70 66 72 75 75 61 
59 58 45 25 24 32 31 53 57 58 56 58 63 64 61 60 
64 64 61 62 65 66 63 57 46 63 66 108 142 125 129 131 
129 126 125 126 128 129 129 130 131 134 136 137 138 196 194 193 191 189 188 187 187 188 187 184 181 177 175 175 175 169 
172 175 176 172 165 163 164 157 134 90 126 158 157 109 129 130 
165 208 215 179 192 201 115 92 88 86 88 88 80 62 48 44 
37 38 39 39 51 58 50 52 55 56 53 52 55 54 51 62 
66 67 62 58 59 59 58 60 49 66 62 89 134 130 134 132 
130 127 126 127 129 130 130 130 132 134 137 139 140 195 194 192 190 188 187 187 187 189 187 184 180 178 178 178 179 181 
180 177 171 168 167 163 157 129 103 110 137 164 163 117 129 190 
202 121 113 179 127 61 93 103 98 91 84 76 65 55 47 31 
46 70 79 71 73 79 76 63 64 62 58 57 58 54 48 62 
67 68 60 52 50 51 50 60 53 77 67 73 130 136 135 132 
131 130 129 129 130 131 132 131 133 136 138 140 140 195 194 192 190 188 187 186 186 189 186 182 179 178 179 180 180 179 
176 170 168 173 172 155 135 109 94 134 136 147 162 135 143 136 
116 127 132 92 76 89 77 91 81 64 47 36 33 38 43 77 
88 105 103 85 82 87 84 77 73 67 64 67 69 61 49 59 
66 68 59 49 46 48 49 57 57 88 79 67 132 141 133 133 
133 133 132 131 131 133 134 134 135 137 138 139 138 195 194 192 190 188 187 187 187 188 184 180 178 179 180 179 178 166 
171 175 173 166 150 125 105 122 103 133 122 144 189 160 136 93 
103 105 86 72 73 68 65 63 67 75 83 91 100 109 114 140 
112 86 71 67 81 88 78 79 71 62 62 70 74 61 45 58 
66 69 62 54 53 56 58 60 62 86 77 60 133 141 135 133 
134 135 134 132 132 134 136 136 137 137 137 136 135 196 195 193 191 189 188 188 188 187 183 180 179 181 181 178 175 184 
184 178 155 121 95 90 98 149 118 106 105 146 205 157 99 88 
51 60 62 39 50 106 172 213 196 170 147 131 123 120 119 124 
98 73 57 54 69 81 75 73 68 61 61 68 71 60 45 59 
67 70 66 63 65 68 69 70 67 70 62 52 132 136 141 132 
135 137 136 133 132 134 136 137 137 137 137 136 134 197 196 194 192 191 190 189 189 188 184 181 182 184 183 178 173 172 
156 135 110 78 59 74 102 150 131 88 93 108 148 103 61 45 
37 77 101 130 198 233 239 228 193 144 106 92 94 102 107 75 
73 75 69 59 64 73 70 64 66 66 63 61 60 55 48 58 
64 67 66 67 71 75 74 75 70 56 54 57 138 130 143 131 
135 138 137 133 131 133 137 135 136 137 138 137 136 198 197 195 193 192 190 190 190 189 186 183 184 187 185 178 172 110 
87 73 75 70 62 73 96 131 138 88 87 54 63 43 44 58 
148 219 214 224 227 200 221 174 144 105 80 73 73 71 67 69 
60 59 61 63 72 72 58 53 63 68 61 51 47 46 46 55 
59 62 62 66 72 75 73 75 71 52 57 70 147 125 141 130 
134 138 137 133 131 133 136 134 135 137 138 139 139 191 185 207 184 195 191 190 187 189 195 180 188 180 180 121 71 72 
75 85 69 62 71 69 77 103 103 88 98 81 68 48 64 140 
195 244 210 207 214 212 156 110 85 73 75 74 76 81 78 80 
72 65 66 74 79 73 64 61 54 52 54 50 45 50 62 55 
57 61 63 64 68 74 79 74 74 64 52 114 139 143 128 137 
137 138 139 137 134 135 138 136 137 138 139 140 140 201 189 204 192 194 183 190 185 179 199 189 149 97 83 80 83 88 
79 81 68 64 70 64 72 79 96 130 182 143 75 52 107 135 
176 205 218 192 211 176 122 92 84 81 76 66 69 77 74 65 
63 60 60 65 68 66 63 63 61 61 61 59 55 55 58 56 
56 56 60 65 69 71 71 76 69 62 76 129 145 143 142 131 
133 135 133 133 135 137 138 137 138 139 141 141 142 203 190 197 199 193 182 202 190 196 176 142 101 98 108 124 122 94 
73 72 69 72 76 67 77 96 110 127 161 130 84 63 101 125 
155 184 188 132 139 135 116 99 94 93 84 72 76 82 76 59 
57 56 59 63 65 66 65 62 65 67 67 67 67 62 56 63 
59 57 58 62 62 58 54 66 58 60 107 143 148 133 143 137 
143 142 135 134 139 141 138 138 139 140 142 142 143 203 199 199 203 191 191 209 183 163 142 126 102 129 149 183 187 91 
67 70 76 81 79 68 82 121 109 77 75 62 62 55 76 106 
92 118 114 124 138 160 121 105 94 95 99 95 95 96 91 65 
54 48 55 67 71 67 62 58 65 66 63 67 72 66 54 58 
57 56 56 55 52 49 46 49 49 63 126 146 150 129 138 135 
143 142 133 132 140 143 138 138 139 140 141 142 142 205 211 209 202 190 201 196 161 115 98 102 110 165 195 226 225 82 
64 74 83 84 76 65 83 103 85 51 51 33 28 34 76 84 
71 95 101 134 153 158 104 85 83 103 123 112 97 99 105 76 
54 39 49 68 75 65 54 60 64 61 56 58 64 60 50 47 
51 54 52 45 41 41 43 34 42 62 116 129 147 138 143 129 
136 136 131 130 137 140 137 136 137 138 140 141 141 197 205 207 197 194 210 167 142 118 77 59 92 166 202 195 166 65 
53 67 76 78 76 73 94 83 87 59 44 24 34 34 55 77 
91 93 112 107 130 107 82 73 93 131 144 112 84 90 105 90 
63 44 52 69 73 64 55 65 64 58 51 50 51 51 47 55 
60 61 53 40 31 32 36 33 37 56 89 99 123 136 141 143 
144 145 142 139 137 137 138 136 137 138 139 140 140 198 194 201 194 201 206 120 119 112 89 69 85 102 111 94 82 63 
49 56 58 62 71 76 99 84 92 57 31 19 44 36 33 68 
66 45 75 99 117 83 75 80 108 138 130 97 86 99 106 95 
75 60 60 63 60 59 63 65 60 56 53 49 46 49 54 64 
67 66 60 50 45 45 48 56 47 69 83 86 89 111 113 132 
129 133 141 141 134 134 142 137 138 139 140 141 141 216 196 202 196 203 190 72 90 90 84 71 91 83 89 72 75 81 
61 55 44 46 59 66 86 84 70 42 47 31 24 20 51 41 
49 62 67 98 62 56 79 81 103 114 93 79 103 125 118 89 
78 69 62 51 42 50 66 61 55 54 57 53 48 53 64 57 
59 61 64 67 72 77 81 88 70 96 101 95 70 86 84 85 
82 94 117 127 124 131 146 138 139 140 141 142 143 204 207 202 210 190 203 62 77 103 120 97 86 87 90 94 60 81 
51 55 64 44 44 63 60 86 50 33 49 27 34 33 29 44 
43 50 66 70 60 73 106 102 99 87 89 109 119 115 114 117 
107 88 79 71 45 26 29 56 74 85 103 86 86 80 91 91 
81 79 83 80 58 88 68 75 81 74 84 97 93 90 68 91 
85 110 83 120 118 86 116 116 143 148 141 145 139 212 198 192 212 198 192 75 79 104 113 83 74 80 78 83 68 70 
51 65 78 60 57 68 61 71 86 120 116 29 18 29 18 42 
32 44 53 42 55 88 103 81 111 118 101 99 109 120 129 98 
94 83 82 77 45 34 61 161 137 103 105 97 113 117 133 139 
102 120 92 76 74 48 71 79 70 67 66 70 107 84 108 78 
70 89 92 84 100 90 80 80 113 143 141 147 139 207 196 193 208 202 189 106 67 100 105 74 64 72 65 66 71 64 
53 69 80 64 58 62 55 66 90 94 94 54 30 15 36 22 
48 44 41 63 66 62 80 81 118 134 118 101 93 100 115 103 
97 80 85 92 58 43 80 116 152 164 154 108 103 105 122 95 
97 83 85 90 88 132 190 198 189 185 160 165 234 137 131 75 
113 74 82 88 88 66 70 78 99 143 145 151 137 195 203 203 200 199 198 148 62 87 101 83 70 76 66 59 69 73 
64 69 69 53 48 52 46 72 41 42 52 4 21 37 21 34 
24 44 49 26 42 75 70 88 100 108 114 112 92 79 86 124 
114 83 82 103 79 53 71 74 124 145 146 132 151 130 105 80 
118 113 114 122 67 130 195 197 204 214 186 176 210 115 116 88 
136 72 81 114 90 74 87 100 90 128 140 152 137 198 204 203 197 199 204 187 106 73 91 93 81 81 74 59 62 76 
72 69 61 50 47 45 38 26 50 26 20 33 49 18 14 18 
37 28 26 43 34 36 77 71 74 72 81 102 105 91 84 115 
114 86 75 94 88 65 65 64 72 61 74 98 160 181 185 198 
187 210 137 143 81 96 185 221 233 243 216 170 123 91 119 91 
83 69 93 114 91 109 85 102 72 95 125 149 144 213 196 194 203 202 200 203 176 83 74 83 79 73 69 53 51 59 
62 60 54 52 51 40 28 22 40 101 164 134 123 129 144 111 
52 29 36 33 44 53 37 51 68 63 54 75 101 104 96 80 
90 84 72 74 80 76 71 92 91 80 82 52 57 85 135 193 
209 248 219 230 123 88 107 245 220 156 109 100 114 148 136 82 
56 66 72 109 98 87 68 94 77 84 119 140 152 209 193 196 210 199 197 197 209 139 76 73 79 66 60 47 49 45 
53 48 44 54 57 42 27 40 17 7 96 177 195 162 178 196 
154 78 32 36 42 42 55 48 58 59 62 73 80 89 104 74 
70 77 76 66 72 79 69 63 68 73 97 82 76 66 81 139 
175 161 173 164 76 71 71 90 88 70 99 123 169 165 92 102 
73 81 52 92 124 66 67 84 105 95 111 116 153 192 197 209 212 192 200 185 202 206 96 76 88 71 60 51 58 49 
56 46 39 55 64 51 37 18 42 29 21 35 112 161 186 167 
186 181 123 50 23 34 46 49 34 44 83 94 65 69 112 96 
67 72 84 71 73 76 55 62 75 67 69 64 89 76 62 45 
61 77 86 72 83 79 149 125 113 128 189 131 120 114 117 145 
72 102 69 55 154 103 77 67 121 102 98 89 151 203 202 199 197 196 196 196 196 193 192 85 40 58 51 45 66 67 
51 41 44 58 80 82 61 33 26 27 29 15 17 72 139 185 
158 176 167 175 138 56 88 47 37 32 59 71 70 79 71 96 
87 72 67 67 61 66 87 56 66 84 77 57 64 74 59 67 
60 68 93 92 61 60 96 118 99 125 124 133 133 154 173 139 
85 51 61 73 111 177 63 97 80 82 100 111 131 202 201 199 197 195 195 195 196 198 186 183 70 37 53 46 44 47 
46 50 48 43 52 57 48 58 48 37 29 20 18 29 44 123 
180 173 178 181 174 151 165 106 86 17 41 40 66 62 84 89 
81 67 63 67 62 63 80 67 65 70 70 58 60 76 88 84 
74 64 66 67 62 73 100 113 118 105 101 116 119 158 131 167 
136 98 64 62 92 167 69 73 117 115 89 80 98 200 199 198 196 195 195 194 195 193 209 185 171 90 65 46 52 47 
50 61 61 50 52 60 57 76 68 47 24 19 26 20 6 31 
135 176 167 172 176 183 174 170 151 83 32 40 38 59 70 78 
73 62 61 67 62 60 73 76 66 58 63 63 53 65 97 148 
150 136 106 77 64 66 71 84 160 164 166 155 139 212 175 179 
137 77 45 65 90 147 74 67 90 123 76 139 80 199 198 197 196 195 194 194 194 193 201 184 189 213 95 64 53 52 
45 50 56 52 53 55 48 58 64 56 34 24 30 32 24 11 
63 181 168 172 171 175 165 175 190 163 87 46 27 58 49 64 
67 63 64 67 61 59 71 81 73 57 58 65 48 43 68 122 
139 148 125 88 76 89 99 85 112 99 140 194 202 240 168 124 
119 89 100 88 71 94 83 69 64 100 79 156 96 197 197 197 197 196 195 194 194 192 199 188 195 199 203 77 49 55 
45 52 63 60 53 48 40 35 47 56 50 36 27 24 24 32 
18 123 183 168 169 182 178 157 184 169 171 46 45 45 49 51 
63 67 67 68 60 60 73 84 84 63 52 60 50 33 37 55 
59 76 78 61 69 106 131 95 97 106 110 114 106 153 161 132 
123 64 91 66 63 55 67 66 94 88 100 69 109 197 197 198 198 197 196 195 194 201 182 206 181 200 199 170 80 51 
44 57 74 70 59 56 53 46 42 41 43 39 31 27 28 28 
11 36 185 166 164 183 169 179 161 164 193 98 42 39 51 41 
57 64 66 68 62 61 71 85 87 70 50 50 51 40 29 63 
47 61 78 68 72 96 106 101 62 75 71 87 91 107 125 162 
134 46 67 75 115 88 73 81 91 90 110 66 95 197 198 199 199 199 198 196 195 196 199 175 213 186 189 206 156 70 
45 42 59 63 61 60 58 61 50 39 36 40 42 40 36 25 
25 14 133 172 172 180 164 192 160 180 171 167 44 41 40 36 
49 54 58 67 65 60 63 76 78 77 62 46 47 46 33 62 
59 92 116 99 93 101 93 121 93 106 86 94 90 69 47 70 
75 57 73 79 84 66 52 90 70 94 91 126 84 197 198 199 200 200 198 197 196 193 196 207 180 191 196 182 199 132 
77 44 53 68 75 72 63 54 57 56 50 48 47 37 24 26 
18 24 36 157 170 172 177 161 177 182 166 185 74 35 34 34 
43 44 51 67 68 58 55 64 67 82 76 48 40 44 33 34 
52 102 121 89 82 97 91 95 126 169 146 144 151 157 133 102 
77 73 80 101 74 74 70 74 92 97 66 115 94 198 199 199 197 195 194 195 197 195 193 190 190 191 191 190 189 198 
133 68 44 58 80 80 63 79 62 46 45 53 55 46 37 42 
24 17 18 60 170 177 168 170 178 171 168 177 116 29 29 32 
43 34 32 55 63 60 70 63 50 58 72 63 47 37 31 36 
49 67 86 103 108 92 71 83 115 152 110 142 164 190 174 110 
96 71 41 96 105 86 71 72 103 132 129 88 104 200 200 201 199 196 195 196 198 195 193 190 190 190 191 190 189 189 
196 145 71 50 61 71 79 61 66 64 55 48 48 47 44 40 
26 17 20 22 91 188 163 175 158 171 175 181 121 52 31 36 
46 36 30 42 48 52 67 70 61 61 65 61 59 50 31 39 
42 44 60 99 142 158 151 95 70 54 112 129 174 158 193 107 
79 73 71 91 62 66 96 73 87 106 107 81 105 201 202 203 201 199 198 198 200 195 193 190 189 190 190 189 188 192 
190 198 165 91 60 64 54 70 73 68 55 49 51 50 43 41 
28 28 22 14 27 141 174 170 157 179 169 170 142 85 26 30 
40 38 33 36 35 42 60 75 70 67 60 59 69 63 37 29 
36 42 56 94 145 179 189 213 147 107 105 106 111 152 136 97 
91 92 78 77 72 83 75 72 77 101 112 95 103 203 204 205 204 201 200 200 201 195 193 190 189 190 190 188 187 179 
198 194 192 188 127 62 55 63 63 64 64 60 54 49 48 43 
28 34 20 36 16 44 161 172 168 171 172 171 156 87 43 22 
28 34 39 39 35 39 51 69 69 71 66 59 67 67 51 38 
43 49 51 54 71 105 136 194 176 172 95 90 161 101 193 156 
89 65 92 93 73 82 76 73 73 105 123 113 105 202 204 206 205 202 200 200 200 195 193 190 189 189 189 187 186 196 
183 194 198 186 190 163 93 58 52 58 70 65 48 46 58 46 
39 25 25 36 21 0 88 166 175 156 182 183 161 71 76 33 
24 27 38 38 35 40 48 56 60 74 78 66 62 68 68 46 
34 35 50 59 77 127 183 151 150 155 169 142 125 157 176 168 
96 55 87 81 75 95 85 78 69 97 106 105 102 201 203 205 204 202 200 199 199 195 193 190 189 189 188 187 185 182 
198 185 179 202 199 181 186 131 90 54 49 52 47 45 52 56 
61 26 45 22 24 30 15 109 174 169 166 174 180 91 77 59 
31 22 30 28 28 41 49 49 54 74 86 78 73 79 81 80 
44 24 32 38 39 63 98 162 122 167 153 148 87 125 83 102 
96 74 91 76 97 123 89 86 72 96 92 92 87 199 201 203 203 201 198 197 197 195 193 190 188 188 188 186 184 189 
170 184 204 189 179 194 204 196 159 107 67 51 50 49 46 59 
66 50 57 39 35 48 13 37 126 176 152 168 179 119 66 74 
35 22 28 20 21 39 50 51 56 72 84 91 103 102 85 81 
55 36 38 43 41 44 52 94 196 145 157 178 173 149 162 126 
102 66 112 107 105 121 105 87 76 104 95 100 92 197 200 202 202 200 197 196 195 196 193 190 188 188 187 186 184 186 
194 189 180 185 192 191 189 178 202 193 133 71 49 53 58 52 
51 74 52 72 47 22 53 8 51 153 165 188 146 117 77 72 
34 25 33 21 19 37 48 57 61 70 79 101 129 122 85 78 
68 51 37 34 40 44 45 49 69 185 168 138 199 183 197 201 
171 79 77 89 133 141 82 82 72 102 97 116 122 204 206 207 205 202 198 197 197 194 194 193 191 187 186 186 188 191 
190 190 189 189 190 191 191 192 180 186 194 157 88 50 53 59 
56 61 72 52 63 69 33 48 8 50 146 171 172 132 83 58 
61 24 22 19 21 18 64 54 79 89 113 83 137 134 128 82 
69 88 32 30 23 48 44 42 45 61 119 150 204 225 237 235 
110 70 124 84 115 144 83 91 80 89 84 101 85 204 205 206 205 202 199 197 197 198 197 194 192 191 189 189 188 190 
190 189 189 189 189 190 190 185 183 182 187 194 173 113 55 40 
53 83 52 80 76 54 70 24 49 34 46 142 179 157 62 54 
59 34 27 31 28 22 53 37 49 72 82 73 112 123 123 67 
66 85 56 38 29 31 34 64 43 39 82 134 184 188 173 141 
77 63 125 112 111 80 84 88 106 122 94 93 89 203 204 206 205 202 199 197 197 201 197 193 191 192 192 189 186 190 
189 188 188 188 188 189 189 184 193 188 179 193 205 173 123 67 
55 40 84 67 84 83 84 53 67 17 40 49 121 154 88 57 
60 44 23 33 23 23 38 71 49 62 54 67 79 75 62 64 
67 83 78 52 39 21 34 43 40 41 45 85 140 199 225 88 
65 75 146 114 111 120 113 81 104 122 99 86 73 201 203 205 204 202 199 198 198 201 195 190 189 191 191 187 182 189 
189 188 187 187 187 188 188 188 191 188 181 178 182 188 189 161 
40 73 46 74 100 102 117 92 45 56 34 36 26 114 93 65 
66 56 20 27 14 25 34 72 44 62 64 83 88 65 60 77 
68 78 73 68 48 28 40 61 63 64 43 74 96 131 138 72 
73 94 183 157 85 116 90 115 105 103 104 100 78 199 202 204 204 201 199 199 199 201 195 190 189 192 192 188 183 190 
189 188 187 187 187 187 187 189 181 180 187 188 182 182 188 185 
167 72 65 58 100 126 166 104 90 71 52 36 50 30 55 60 
62 62 28 27 13 31 39 67 58 90 110 121 128 86 98 87 
67 77 60 93 68 48 42 37 53 62 49 85 98 117 121 80 
80 105 162 207 95 90 130 111 87 66 70 70 67 198 200 203 203 201 199 199 200 201 197 193 192 194 194 191 188 191 
190 189 188 187 187 187 187 185 187 187 186 186 188 187 184 192 
181 183 75 52 80 139 180 180 115 140 59 67 35 35 32 39 
42 48 35 27 18 31 40 98 84 114 141 166 174 102 100 91 
78 91 68 129 110 79 49 61 77 73 61 87 93 98 109 104 
90 154 137 179 147 120 142 97 100 86 81 69 81 197 199 202 202 201 200 199 200 197 196 195 193 193 193 192 192 193 
192 190 189 188 188 188 188 187 193 193 184 179 183 190 193 177 
201 177 173 75 63 139 136 205 136 147 106 46 39 58 52 33 
28 28 37 25 28 34 45 93 78 126 136 183 180 110 102 87 
95 101 84 147 154 105 61 59 59 39 65 115 126 86 71 104 
122 189 178 157 147 114 59 76 86 77 82 68 79 196 199 202 202 201 200 200 200 193 193 194 192 190 190 191 193 193 
193 191 190 189 188 188 189 195 184 181 191 195 188 182 182 185 
191 175 196 165 75 87 108 137 134 133 67 76 53 74 49 49 
32 19 39 25 39 44 58 71 81 162 133 161 127 85 100 79 
103 97 88 141 174 113 67 63 75 53 73 98 116 100 123 104 
168 145 204 188 120 110 89 101 80 58 82 81 95 199 196 196 198 197 192 190 192 192 191 191 191 192 191 188 185 188 
190 191 191 189 187 187 188 186 186 186 185 185 184 184 184 184 
183 191 169 199 105 76 107 90 77 83 118 88 67 63 65 81 
44 28 36 37 37 47 56 85 82 97 86 119 90 82 71 90 
86 82 101 148 187 114 70 68 75 60 78 162 115 128 143 142 
146 192 188 157 116 147 90 89 103 102 64 65 103 199 196 196 199 197 193 192 194 192 191 190 191 192 191 188 185 188 
190 191 191 189 187 188 189 186 186 186 185 185 185 184 184 187 
186 183 179 193 135 68 94 121 147 144 171 91 67 66 73 96 
56 33 36 35 40 56 69 75 100 116 103 114 94 93 127 122 
82 91 185 164 174 100 91 69 75 75 73 158 119 155 155 157 
139 158 180 150 129 146 103 86 109 80 84 96 112 198 195 195 198 198 194 193 195 192 191 190 190 191 191 188 186 189 
191 191 190 188 187 188 189 186 186 186 186 185 185 185 184 186 
185 174 188 187 175 66 83 134 186 180 195 89 82 70 72 90 
53 32 34 33 39 58 72 84 114 114 110 114 107 111 140 121 
77 106 191 129 132 97 88 79 70 79 86 186 161 192 150 165 
181 208 182 143 136 155 98 107 81 110 111 102 97 196 193 194 197 197 193 192 195 192 191 190 190 191 191 189 187 190 
191 192 190 188 188 189 190 187 187 186 186 186 185 185 185 182 
178 174 187 185 199 76 82 129 161 173 167 92 118 79 65 68 
41 32 39 40 44 58 68 116 142 145 147 146 132 170 137 107 
89 139 167 122 102 108 92 86 74 84 118 194 187 212 167 158 
149 177 144 165 163 164 71 95 86 148 96 75 125 194 192 192 196 195 192 191 193 192 190 189 189 190 191 190 188 191 
192 192 190 188 188 190 191 187 187 187 186 186 186 185 185 183 
176 183 180 185 198 90 86 139 137 176 139 99 143 83 64 64 
44 42 51 50 53 66 73 131 156 193 187 166 127 208 115 91 
108 146 160 135 89 88 95 79 89 98 152 164 164 195 193 183 
139 157 166 182 163 158 124 93 87 104 104 83 87 195 193 193 196 195 191 190 193 192 190 188 188 190 191 190 190 192 
192 192 190 188 188 190 192 188 187 187 187 186 186 186 186 188 
181 188 179 183 184 101 87 161 149 192 140 98 133 76 64 75 
57 53 57 54 59 74 83 157 150 213 192 169 118 179 70 87 
144 132 129 100 95 78 87 71 97 103 172 157 156 166 172 162 
143 157 161 132 131 137 157 120 70 81 95 83 90 199 196 196 198 197 193 191 193 192 190 188 188 189 191 191 190 193 
193 192 190 188 188 191 193 188 188 187 187 187 186 186 186 187 
187 180 186 180 177 108 90 168 173 183 155 89 109 74 67 81 
66 63 65 61 67 83 93 171 130 215 182 168 128 124 79 115 
163 128 106 86 98 97 91 84 114 111 166 167 168 169 162 163 
135 163 143 176 183 188 166 112 83 113 78 75 154 202 198 198 200 199 194 192 194 192 190 188 188 189 191 191 191 193 
193 192 190 188 188 191 194 188 188 188 187 187 186 186 186 182 
190 168 193 177 179 114 94 162 186 158 167 86 100 85 75 81 
70 73 78 74 79 94 101 125 88 205 162 140 115 72 123 134 
122 111 107 114 67 88 87 106 142 132 147 154 163 197 203 167 
114 195 151 232 159 183 154 100 79 97 160 122 59 204 201 198 198 200 200 196 192 193 190 188 188 190 191 192 192 193 
192 192 191 190 189 188 188 190 188 187 190 193 191 185 178 192 
175 186 163 163 147 76 100 147 194 150 126 101 94 76 115 74 
85 90 92 131 70 140 99 94 106 131 172 184 78 116 133 119 
115 98 114 71 107 98 91 149 162 161 147 149 173 207 239 220 
144 209 181 235 135 194 169 117 101 167 175 70 89 192 193 194 193 191 190 189 189 196 194 192 191 192 192 191 189 190 
190 191 191 192 193 193 193 195 189 182 176 172 165 155 147 126 
113 111 106 108 110 93 96 113 140 148 144 64 68 147 87 111 
128 86 130 86 139 101 114 126 115 111 136 80 70 119 118 82 
116 85 93 124 121 107 146 139 156 168 156 112 163 220 207 125 
232 162 175 140 161 127 218 76 94 154 174 94 88 197 201 204 202 197 195 197 201 193 192 192 194 196 196 195 193 195 
194 190 186 182 177 174 173 147 141 133 127 124 120 114 109 119 
116 107 110 103 90 99 77 109 122 141 162 72 167 96 88 102 
116 132 141 76 166 110 164 82 67 70 110 89 124 115 81 103 
108 107 106 103 105 148 135 131 135 121 134 128 185 219 168 150 
206 176 146 241 126 108 135 126 115 100 171 136 132 201 203 203 201 198 196 197 199 195 194 193 193 193 192 188 185 173 
170 164 156 147 139 134 130 121 117 112 110 111 112 113 113 109 
113 112 113 119 96 106 107 123 135 92 92 105 134 97 112 144 
97 144 120 86 155 101 95 91 106 123 112 120 114 91 115 85 
122 108 116 171 189 178 112 158 159 117 139 207 215 204 163 164 
174 153 196 203 98 111 137 134 111 70 162 105 80 211 208 204 202 203 203 201 198 200 197 193 189 185 179 173 168 161 
160 157 153 148 144 141 140 142 137 130 125 122 120 119 119 111 
109 113 97 125 103 110 158 114 115 123 108 79 96 114 120 132 
89 127 150 82 154 130 106 126 137 140 106 113 117 92 124 110 
146 155 167 157 169 153 83 158 169 158 156 217 184 175 150 147 
170 207 198 180 81 156 142 108 91 101 165 140 102 211 206 200 199 202 203 200 197 193 191 188 186 184 181 177 174 181 
181 180 178 177 175 174 174 163 159 152 144 136 130 125 123 129 
119 130 104 132 108 114 156 112 142 192 165 70 115 74 82 126 
108 140 164 84 99 123 118 113 102 98 106 106 171 142 115 139 
131 195 230 160 159 168 124 124 120 152 139 161 159 170 137 107 
205 192 169 222 132 110 133 83 81 135 125 154 121 197 195 192 191 192 193 194 195 195 193 191 192 194 195 194 193 193 
192 191 190 189 187 186 186 188 187 184 179 173 166 161 159 134 
118 126 107 117 100 137 116 108 194 165 128 105 59 77 60 96 
65 81 100 132 94 116 108 110 111 113 114 114 156 162 158 151 
146 162 165 209 170 91 92 144 116 129 131 145 181 170 174 147 
111 155 165 140 112 167 122 97 147 196 142 120 87 208 211 212 210 208 209 214 219 214 211 206 204 203 202 200 199 203 
204 204 205 206 206 207 207 203 204 205 203 197 191 186 183 185 
152 134 109 89 80 157 78 77 163 138 154 98 100 54 101 101 
92 85 107 159 96 77 102 96 98 99 95 174 139 132 146 187 
159 183 131 181 179 167 201 191 161 127 136 152 182 129 211 193 
171 128 102 158 151 134 119 98 162 165 165 117 114 222 223 225 226 226 227 229 229 229 222 219 223 225 224 222 222 223 
225 225 223 220 220 223 227 220 222 224 224 221 219 218 219 206 
195 162 125 105 93 95 109 78 134 168 186 97 95 93 117 102 
100 127 107 148 102 84 94 89 107 113 139 91 123 138 161 208 
199 206 153 204 190 217 197 177 138 156 122 119 153 182 186 172 
122 194 160 192 211 167 177 150 136 152 159 157 156 221 224 227 229 232 234 237 239 236 230 227 230 233 231 229 230 230 
231 231 230 227 227 230 233 231 233 236 236 234 232 231 232 219 
211 177 137 108 89 86 99 98 139 173 162 112 87 91 105 93 
82 101 97 140 127 113 111 107 110 113 132 104 137 160 177 176 
204 232 168 154 115 156 179 159 129 148 127 146 178 189 188 177 
209 180 157 205 203 140 201 117 146 151 113 123 176 211 215 220 225 229 233 237 240 242 236 233 236 239 237 235 236 235 
235 235 234 232 233 235 238 234 237 239 240 239 238 238 238 248 
243 212 169 132 106 99 110 100 132 167 132 135 90 101 111 108 
104 120 109 103 109 105 105 118 104 105 113 112 143 177 186 132 
135 143 126 141 128 143 153 148 130 149 139 185 212 197 192 214 
200 173 227 144 173 191 166 91 164 170 105 124 195 
